# xmcd CD database file
#
# Track frame offsets:
#	150
#	13547
#	33365
#	49844
#	63950
#	77462
#	99066
#	116963
#	130867
#	145171
#	160722
#	176222
#
# Disc length: 2497 seconds
#
# Revision: 0
# Processed by: cddbd v1.5.1PL2 Copyright (c) Steve Scherf et al.
# Submitted via: CDex 1.51
#
DISCID=9309bf0c
DTITLE=Cha Fina - Todo para bailar
DYEAR=1900
DGENRE=Merengue
TTITLE0=El burro de Tino
TTITLE1=No te sera facil 
TTITLE2=Promesas
TTITLE3=Romperé las cadenas ok - 04 cadena ok
TTITLE4=Quererte como te quiero
TTITLE5=Olvidare
TTITLE6=Tu sin mi no eres nada
TTITLE7=Un nuevo amor
TTITLE8=Usted
TTITLE9=Amores míos
TTITLE10=Todo aabó
TTITLE11=Cabecita loca
EXTD=
EXTT0=
EXTT1=
EXTT2=
EXTT3=
EXTT4=
EXTT5=
EXTT6=
EXTT7=
EXTT8=
EXTT9=
EXTT10=
EXTT11=
PLAYORDER=
